<?xml version="1.0" encoding="UTF-8"?>
<svg version="1.1" xmlns="http://www.w3.org/2000/svg" width="512" height="512">
<path d="M0 0 C2.82424288 2.19022918 4.41508603 3.83017207 6 7 C6.10042619 9.17293123 6.13392758 11.34903312 6.1386652 13.52427864 C6.14150742 14.20531255 6.14434964 14.88634646 6.14727798 15.58801776 C6.15566541 17.89268501 6.15689634 20.19730226 6.15821838 22.50198364 C6.16278098 24.16188072 6.16778056 25.82177665 6.17318195 27.48167121 C6.18680688 32.06058266 6.19419397 36.63948666 6.20060861 41.21841311 C6.20859349 46.14958496 6.22229781 51.0807412 6.23532104 56.01190186 C6.25711101 64.56133665 6.27524625 73.110773 6.29092598 81.6602211 C6.31360171 94.02141386 6.34174769 106.38258935 6.37124526 118.74376749 C6.41894939 138.79710691 6.46220591 158.85045338 6.50268555 178.90380859 C6.54202614 198.38818917 6.5834489 217.87256349 6.62768555 237.35693359 C6.63040982 238.55718037 6.63313409 239.75742714 6.63594092 240.99404503 C6.64962016 247.01510049 6.66334048 253.03615585 6.67708123 259.05721116 C6.79109031 309.03812771 6.89788984 359.01905783 7 409 C7.83493988 408.16283951 8.66987976 407.32567902 9.53012085 406.46315002 C17.3853134 398.58771704 25.24312138 390.71490211 33.10352135 382.84466648 C37.14488587 378.79807543 41.18531167 374.75055613 45.22363281 370.70092773 C49.11826054 366.79546298 53.01530068 362.89242074 56.91405106 358.9910717 C58.40372162 357.49954837 59.89250938 356.00714282 61.38041306 354.51385689 C63.45882302 352.42822573 65.54030288 350.34570664 67.62255859 348.26391602 C68.24186752 347.64101181 68.86117645 347.0181076 69.49925232 346.37632751 C74.7873585 341.10105346 74.7873585 341.10105346 79.75 340.6875 C84.1238135 340.72733437 86.6159655 342.19372749 90 345 C91.17006856 347.34013712 91.33836406 349.01457952 91.5 351.625 C91.5721875 352.44226563 91.644375 353.25953125 91.71875 354.1015625 C89.84757629 361.64727388 81.08704633 368.05708844 75.7097168 373.41967773 C74.91211441 374.21903244 74.11451202 375.01838715 73.29273987 375.84196472 C70.68072643 378.45834602 68.06511239 381.07109236 65.44921875 383.68359375 C63.62540822 385.50807837 61.80174612 387.33271138 59.97822571 389.15748596 C56.16964218 392.96753924 52.35931554 396.77583665 48.54760742 400.58276367 C44.1404681 404.98443888 39.73697429 409.38973653 35.33531064 413.79688686 C31.09117792 418.04609765 26.84424784 422.29249976 22.59610939 426.53770638 C20.79118179 428.34196562 18.98700023 430.14697149 17.18356895 431.95272636 C14.67255509 434.46626733 12.15837974 436.97660173 9.64331055 439.48608398 C8.89473785 440.23668091 8.14616516 440.98727783 7.37490845 441.76062012 C6.69231461 442.44039413 6.00972076 443.12016815 5.30644226 443.82054138 C4.41580094 444.71061717 4.41580094 444.71061717 3.50716686 445.61867428 C0.92091637 447.98898537 -1.19753217 448.28777289 -4.625 448.5 C-5.44226563 448.5721875 -6.25953125 448.644375 -7.1015625 448.71875 C-14.64727388 446.84757629 -21.05708844 438.08704633 -26.41967773 432.7097168 C-27.21903244 431.91211441 -28.01838715 431.11451202 -28.84196472 430.29273987 C-31.45834602 427.68072643 -34.07109236 425.06511239 -36.68359375 422.44921875 C-38.50807837 420.62540822 -40.33271138 418.80174612 -42.15748596 416.97822571 C-45.96753924 413.16964218 -49.77583665 409.35931554 -53.58276367 405.54760742 C-57.98443888 401.1404681 -62.38973653 396.73697429 -66.79688686 392.33531064 C-71.04609765 388.09117792 -75.29249976 383.84424784 -79.53770638 379.59610939 C-81.34196562 377.79118179 -83.14697149 375.98700023 -84.95272636 374.18356895 C-87.46626733 371.67255509 -89.97660173 369.15837974 -92.48608398 366.64331055 C-93.61197937 365.52045151 -93.61197937 365.52045151 -94.76062012 364.37490845 C-95.44039413 363.69231461 -96.12016815 363.00972076 -96.82054138 362.30644226 C-97.41392524 361.71268138 -98.00730909 361.1189205 -98.61867428 360.50716686 C-101.65465483 357.19460328 -101.38426505 353.79035433 -101.359375 349.484375 C-101 347 -101 347 -98.625 343.9375 C-95.07469796 341.31703897 -92.67350888 340.44484662 -88.17285156 340.55284119 C-79.46683085 342.344484 -70.04420383 355.83301191 -63.875 362.02734375 C-62.51901842 363.38519348 -61.1628136 364.74282033 -59.80639648 366.10023499 C-56.2598394 369.65058599 -52.71629739 373.20393117 -49.17340088 376.75793457 C-45.5484264 380.39319078 -41.92057251 384.02557099 -38.29296875 387.65820312 C-31.19251099 394.76934302 -24.09523903 401.8836533 -17 409 C-16.99910437 407.72748778 -16.99910437 407.72748778 -16.99819064 406.42926824 C-16.96231501 356.17584676 -16.90570426 305.92248522 -16.82207905 255.66911932 C-16.81206131 249.63829984 -16.80221723 243.60748009 -16.79248047 237.57666016 C-16.78956841 235.77568024 -16.78956841 235.77568024 -16.78659752 233.9383169 C-16.75555656 214.48459495 -16.73859102 195.03088481 -16.72680578 175.57714276 C-16.71440508 155.62332108 -16.68692814 135.66956146 -16.64538693 115.71577895 C-16.62022058 103.39820422 -16.60688501 91.08073238 -16.60857043 78.76313157 C-16.60860013 70.32228982 -16.59401683 61.88155305 -16.56783572 53.44075219 C-16.55315398 48.56715199 -16.5450174 43.6937671 -16.55419731 38.82014847 C-16.56245621 34.36014932 -16.55240689 29.90058367 -16.52766338 25.44064899 C-16.52195795 23.82548847 -16.52302876 22.21028716 -16.53148755 20.59513871 C-16.54199238 18.40172736 -16.52797366 16.20978287 -16.50780869 14.01646996 C-16.5062898 12.7975677 -16.50477092 11.57866544 -16.50320601 10.32282674 C-15.89793252 6.32601652 -14.50275123 4.13727849 -12 1 C-8.28546768 -0.85726616 -4.04420575 -0.58501089 0 0 Z " fill="#ffffff" transform="translate(261,32)"/>
</svg>
